<mxfile host="app.diagrams.net" agent="Mozilla/5.0 (Windows NT 10.0; Win64; x64; rv:137.0) Gecko/20100101 Firefox/137.0" version="24.7.6">
  <diagram name="Page-1" id="U_pn0yf2IwOVqaRuDnzB">
    <mxGraphModel dx="1362" dy="600" grid="1" gridSize="10" guides="1" tooltips="1" connect="1" arrows="1" fold="1" page="0" pageScale="1" pageWidth="850" pageHeight="1100" math="0" shadow="0">
      <root>
        <object label="" id="0">
          <mxCell />
        </object>
        <mxCell id="1" parent="0" />
        <object label="Azure Subscription" id="nscfyXTL8VfWeCwvnsnR-1">
          <mxCell style="rounded=1;arcSize=10;dashed=0;fillColor=none;gradientColor=none;strokeWidth=2;verticalAlign=bottom;labelPosition=center;verticalLabelPosition=top;align=right;fontStyle=1" vertex="1" parent="1">
            <mxGeometry x="70" y="70" width="910" height="380" as="geometry" />
          </mxCell>
        </object>
        <mxCell id="nscfyXTL8VfWeCwvnsnR-2" value="" style="image;aspect=fixed;html=1;points=[];align=center;fontSize=12;image=img/lib/azure2/general/Subscriptions.svg;" vertex="1" parent="1">
          <mxGeometry x="980" y="60" width="44" height="71" as="geometry" />
        </mxCell>
        <mxCell id="nscfyXTL8VfWeCwvnsnR-3" value="&lt;b&gt;Entra ID&lt;/b&gt;" style="image;aspect=fixed;html=1;points=[];align=center;fontSize=12;image=img/lib/azure2/other/Entra_Identity.svg;" vertex="1" parent="1">
          <mxGeometry x="860" y="115" width="33.75" height="30" as="geometry" />
        </mxCell>
        <mxCell id="nscfyXTL8VfWeCwvnsnR-23" value="" style="edgeStyle=orthogonalEdgeStyle;rounded=0;orthogonalLoop=1;jettySize=auto;html=1;exitX=0;exitY=0.616;exitDx=0;exitDy=0;entryX=1;entryY=0.5;entryDx=0;entryDy=0;exitPerimeter=0;" edge="1" parent="1" source="nscfyXTL8VfWeCwvnsnR-32" target="nscfyXTL8VfWeCwvnsnR-21">
          <mxGeometry relative="1" as="geometry">
            <mxPoint x="1070" y="420" as="sourcePoint" />
            <mxPoint x="750" y="210" as="targetPoint" />
          </mxGeometry>
        </mxCell>
        <object label="Contributor Role" id="nscfyXTL8VfWeCwvnsnR-4">
          <mxCell style="rounded=1;arcSize=10;dashed=0;fillColor=none;gradientColor=none;strokeWidth=2;whiteSpace=wrap;fontStyle=1;verticalAlign=bottom;" vertex="1" parent="1">
            <mxGeometry x="830" y="170" width="140" height="200" as="geometry" />
          </mxCell>
        </object>
        <mxCell id="nscfyXTL8VfWeCwvnsnR-5" value="" style="image;aspect=fixed;html=1;points=[];align=center;fontSize=12;image=img/lib/azure2/networking/Virtual_Networks.svg;" vertex="1" parent="1">
          <mxGeometry x="110" y="100" width="25.13" height="15" as="geometry" />
        </mxCell>
        <object label="" id="nscfyXTL8VfWeCwvnsnR-6">
          <mxCell style="rounded=1;arcSize=10;dashed=0;fillColor=none;gradientColor=none;strokeWidth=2;" vertex="1" parent="1">
            <mxGeometry x="90" y="120" width="440" height="280" as="geometry" />
          </mxCell>
        </object>
        <mxCell id="nscfyXTL8VfWeCwvnsnR-8" value="" style="image;aspect=fixed;html=1;points=[];align=center;fontSize=12;image=img/lib/azure2/networking/Subnet.svg;" vertex="1" parent="1">
          <mxGeometry x="110" y="140" width="50.1" height="30" as="geometry" />
        </mxCell>
        <object label="subnet1" id="nscfyXTL8VfWeCwvnsnR-9">
          <mxCell style="rounded=1;arcSize=10;dashed=0;fillColor=none;gradientColor=none;strokeWidth=2;fontStyle=1;verticalAlign=top;labelPosition=center;verticalLabelPosition=bottom;align=center;" vertex="1" parent="1">
            <mxGeometry x="110" y="140" width="120" height="220" as="geometry" />
          </mxCell>
        </object>
        <mxCell id="nscfyXTL8VfWeCwvnsnR-11" value="&lt;b&gt;Bootstrap Node&lt;/b&gt;" style="image;sketch=0;aspect=fixed;html=1;points=[];align=center;fontSize=12;image=img/lib/mscae/Virtual_Machine_2.svg;" vertex="1" parent="1">
          <mxGeometry x="135.13" y="210" width="60" height="55.2" as="geometry" />
        </mxCell>
        <object label="appGW subnet" id="nscfyXTL8VfWeCwvnsnR-12">
          <mxCell style="rounded=1;arcSize=10;dashed=0;fillColor=none;gradientColor=none;strokeWidth=2;fontStyle=1;verticalAlign=top;labelPosition=center;verticalLabelPosition=bottom;align=center;" vertex="1" parent="1">
            <mxGeometry x="249" y="140" width="120" height="220" as="geometry" />
          </mxCell>
        </object>
        <mxCell id="nscfyXTL8VfWeCwvnsnR-13" value="" style="image;sketch=0;aspect=fixed;html=1;points=[];align=center;fontSize=12;image=img/lib/mscae/Application_Gateway.svg;" vertex="1" parent="1">
          <mxGeometry x="284" y="215.2" width="50" height="50" as="geometry" />
        </mxCell>
        <object label="aks nodepool subnet" id="nscfyXTL8VfWeCwvnsnR-14">
          <mxCell style="rounded=1;arcSize=10;dashed=0;fillColor=none;gradientColor=none;strokeWidth=2;fontStyle=1;verticalAlign=top;labelPosition=center;verticalLabelPosition=bottom;align=center;" vertex="1" parent="1">
            <mxGeometry x="391" y="141" width="120" height="220" as="geometry" />
          </mxCell>
        </object>
        <mxCell id="nscfyXTL8VfWeCwvnsnR-15" value="" style="image;aspect=fixed;html=1;points=[];align=center;fontSize=12;image=img/lib/azure2/compute/VM_Scale_Sets.svg;" vertex="1" parent="1">
          <mxGeometry x="417" y="212" width="58" height="58" as="geometry" />
        </mxCell>
        <mxCell id="nscfyXTL8VfWeCwvnsnR-16" value="" style="image;aspect=fixed;html=1;points=[];align=center;fontSize=12;image=img/lib/azure2/networking/Subnet.svg;" vertex="1" parent="1">
          <mxGeometry x="249" y="141" width="48.43" height="29" as="geometry" />
        </mxCell>
        <mxCell id="nscfyXTL8VfWeCwvnsnR-17" value="" style="image;aspect=fixed;html=1;points=[];align=center;fontSize=12;image=img/lib/azure2/networking/Subnet.svg;" vertex="1" parent="1">
          <mxGeometry x="388" y="142" width="48.43" height="29" as="geometry" />
        </mxCell>
        <mxCell id="nscfyXTL8VfWeCwvnsnR-18" value="&lt;b&gt;Resource Group&lt;/b&gt;" style="fontStyle=0;verticalAlign=top;align=center;spacingTop=-2;fillColor=none;rounded=0;whiteSpace=wrap;html=1;strokeColor=#919191;strokeWidth=2;dashed=1;container=1;collapsible=0;expand=0;recursiveResize=0;" vertex="1" parent="1">
          <mxGeometry x="80" y="94" width="600" height="320" as="geometry" />
        </mxCell>
        <mxCell id="nscfyXTL8VfWeCwvnsnR-20" value="&lt;b&gt;Key Vault&lt;/b&gt;" style="image;aspect=fixed;html=1;points=[];align=center;fontSize=12;image=img/lib/azure2/security/Key_Vaults.svg;" vertex="1" parent="nscfyXTL8VfWeCwvnsnR-18">
          <mxGeometry x="505" y="250" width="40" height="40" as="geometry" />
        </mxCell>
        <mxCell id="nscfyXTL8VfWeCwvnsnR-19" value="" style="image;aspect=fixed;html=1;points=[];align=center;fontSize=12;image=img/lib/azure2/general/Resource_Groups.svg;" vertex="1" parent="nscfyXTL8VfWeCwvnsnR-18">
          <mxGeometry x="555.37" width="44.63" height="42" as="geometry" />
        </mxCell>
        <object label="Store service principal secret here" id="nscfyXTL8VfWeCwvnsnR-21">
          <mxCell style="rounded=1;arcSize=10;dashed=0;fillColor=none;gradientColor=none;strokeWidth=2;whiteSpace=wrap;fontStyle=1" vertex="1" parent="nscfyXTL8VfWeCwvnsnR-18">
            <mxGeometry x="459" y="165" width="130" height="130" as="geometry" />
          </mxCell>
        </object>
        <mxCell id="nscfyXTL8VfWeCwvnsnR-33" value="&lt;b&gt;AKS&lt;/b&gt;" style="image;aspect=fixed;html=1;points=[];align=center;fontSize=12;image=img/lib/azure2/compute/Kubernetes_Services.svg;" vertex="1" parent="nscfyXTL8VfWeCwvnsnR-18">
          <mxGeometry x="477" y="66" width="68" height="60" as="geometry" />
        </mxCell>
        <mxCell id="nscfyXTL8VfWeCwvnsnR-29" value="" style="image;aspect=fixed;html=1;points=[];align=center;fontSize=12;image=img/lib/azure2/identity/Custom_Azure_AD_Roles.svg;" vertex="1" parent="1">
          <mxGeometry x="880" y="305" width="40" height="40" as="geometry" />
        </mxCell>
        <object label="Service &#xa;Principal" id="nscfyXTL8VfWeCwvnsnR-32">
          <mxCell style="rounded=1;arcSize=10;dashed=0;fillColor=none;gradientColor=none;strokeWidth=2;fontStyle=1" vertex="1" parent="1">
            <mxGeometry x="838" y="190" width="125" height="85" as="geometry" />
          </mxCell>
        </object>
        <mxCell id="nscfyXTL8VfWeCwvnsnR-35" value="" style="edgeStyle=orthogonalEdgeStyle;rounded=0;orthogonalLoop=1;jettySize=auto;html=1;entryX=0.987;entryY=0.588;entryDx=0;entryDy=0;entryPerimeter=0;" edge="1" parent="1" target="nscfyXTL8VfWeCwvnsnR-33">
          <mxGeometry relative="1" as="geometry">
            <mxPoint x="840" y="230" as="sourcePoint" />
            <mxPoint x="680" y="330" as="targetPoint" />
            <Array as="points">
              <mxPoint x="840" y="230" />
              <mxPoint x="742" y="230" />
              <mxPoint x="742" y="195" />
            </Array>
          </mxGeometry>
        </mxCell>
        <mxCell id="nscfyXTL8VfWeCwvnsnR-36" value="&lt;b&gt;tfstate file&lt;/b&gt;" style="image;aspect=fixed;html=1;points=[];align=center;fontSize=12;image=img/lib/azure2/storage/Storage_Accounts.svg;" vertex="1" parent="1">
          <mxGeometry x="-220" y="120" width="65" height="52" as="geometry" />
        </mxCell>
        <mxCell id="nscfyXTL8VfWeCwvnsnR-44" value="&lt;b&gt;plan/apply&lt;/b&gt;" style="edgeStyle=orthogonalEdgeStyle;rounded=0;orthogonalLoop=1;jettySize=auto;html=1;entryX=0.5;entryY=1;entryDx=0;entryDy=0;labelPosition=center;verticalLabelPosition=bottom;align=center;verticalAlign=top;" edge="1" parent="1" source="nscfyXTL8VfWeCwvnsnR-38" target="nscfyXTL8VfWeCwvnsnR-40">
          <mxGeometry relative="1" as="geometry" />
        </mxCell>
        <mxCell id="nscfyXTL8VfWeCwvnsnR-38" value="&lt;b&gt;Devops &lt;br&gt;Engineer&lt;/b&gt;" style="verticalLabelPosition=bottom;html=1;verticalAlign=top;align=center;strokeColor=none;fillColor=#00BEF2;shape=mxgraph.azure.user;" vertex="1" parent="1">
          <mxGeometry x="-250" y="320" width="47.5" height="50" as="geometry" />
        </mxCell>
        <mxCell id="nscfyXTL8VfWeCwvnsnR-41" value="" style="edgeStyle=orthogonalEdgeStyle;rounded=0;orthogonalLoop=1;jettySize=auto;html=1;" edge="1" parent="1" source="nscfyXTL8VfWeCwvnsnR-40" target="nscfyXTL8VfWeCwvnsnR-1">
          <mxGeometry relative="1" as="geometry">
            <mxPoint x="40" y="260" as="targetPoint" />
          </mxGeometry>
        </mxCell>
        <mxCell id="nscfyXTL8VfWeCwvnsnR-43" value="&lt;div&gt;&lt;b&gt;&lt;font style=&quot;font-size: 12px;&quot;&gt;Init&lt;/font&gt;&lt;/b&gt;&lt;/div&gt;" style="edgeStyle=orthogonalEdgeStyle;rounded=0;orthogonalLoop=1;jettySize=auto;html=1;entryX=0;entryY=0.385;entryDx=0;entryDy=0;entryPerimeter=0;align=left;labelPosition=center;verticalLabelPosition=bottom;verticalAlign=top;" edge="1" parent="1" source="nscfyXTL8VfWeCwvnsnR-40" target="nscfyXTL8VfWeCwvnsnR-36">
          <mxGeometry relative="1" as="geometry" />
        </mxCell>
        <mxCell id="nscfyXTL8VfWeCwvnsnR-40" value="Terraform" style="shape=image;verticalLabelPosition=top;labelBackgroundColor=default;verticalAlign=bottom;aspect=fixed;imageAspect=0;image=data:image/png,iVBORw0KGgoAAAANSUhEUgAAAOEAAADhCAMAAAAJbSJIAAAAwFBMVEX///9cTuVAQLJSQuRVReSoovBQQOQ9PbE5ObDi4PpTU7jS0Pd8fMenoPBaTOVWR+RMO+MqKq3x8P0wMK5KOeM7O7FuYuf49/7Nyfbn5fuel+6vr9t5b+lhU+b8+//e3PmKgevZ1vi7tvOuqPHR0eqCeOplWOaRieyak+7g4PFlZb6IiMtNTbbAvPTs6vy0r/LHw/VyZ+hEMOIlJayjo9bHx+ZgYL11dcSamtNYWLo9KOJHR7WSks/Ly+eoqNiBgcla/c5gAAAGjklEQVR4nO2dbVfbOBBGZSc4BooTx0nTQgkvhVBaCKWUAtvd7f//VyuTkMiOZI/s2CPN6vnS0pNzonuQei2NJDPm4uLi4uLi8v/MBLsBjedkdoLdhIazOxqdDrEb0Wh2A6/f+YzdiibDCb2oc/wBux3NJSXkjINPH7Fb0lQWhJ7XHxxOsdvSTN4IPa/bvcVuTCNZE3pR8J6iOQRCzkjRHBlCPhwDcubIEXJzeMTMkSekZ45NQt5VR5TMISNMzXGO3bCtRU6YmuMMu2lbioIwHY5EzKEkJGOOAkIi5igipGGOYsLUHF8sN0cZITdH325zlBPabg4AoeXmABFabQ4gocXmgBLaaw444as5LCwC6BDaaQ49Qm6OmW3m0CS00BzahOlw3MFutU4qEHqeVeaoROhFP/axGw5ONUIvcITmxBEWEx4g/K969E7v8zUJR21Xjy/2Htol7Lb7PD55F4/DlglbrR7/jEPfb58wfR5vpXr8+DvxfRzCVlZyrr/GPR+NsPnn8em3eOz7mIQNr+QchaHvYxM2uJJzcZP0fAMIm1rJmTzFAh8uYSPV41dDmEO4dXMsDWES4VbNsTKEUYTbM8dkbQjDCLdkDtEQxhFuwRzcEFI+UwjrmmP4JBmAhhGm2wAr1wCeH+Qd1DDCyjWAR1/VQY0jrFQDuP6l7qDmEeqbQ2EIgwlTc2isVh0lBQPQVEINc6gNYTYh1BxFhjCdMF2tKjPH9Dk/h7CLsNQcJYawgbDQHNcvsA5ajXDUEqHaHNNyQ9QhHM6CqCXCdDhK5hwQQ9QhZOy8q9fMGoSet3FK7mIPPAArE7LJl1G/LcKcOaCGqEnI2MdPA82uWpkwU+cAG6I2IWMfvI4WYw3C9KzD4ktfdDtoHULGPgc6XXVJuFOJ0AsWX7mn3UNrEbLh6Qj+a6xH2MEhZOzsPdgclhIydtsBNtlaQjY9hJnDXkKoOWwm5OY4LjeH3YQQc9hOWG4O6wlLzUGAkM85isxBgpCbY6AcjjQIi8xBhVBtDjqEKnNQIpSbgxSh1BzECPmcI79aRY5wwxz0CPPmoEiYNQdNQm6OVVelSsiGV0tzkCVk7GRhDsKE3Bz9LnFCbo6gT5uQsfnlX8QJGds/o064jCO0n7Badc0mwnONctWWCMcPz20S8ufxKhsdahAmexetAjL96nEtwjA8apsvjV71uAbhOP4b6c4qrepxZcJe/PUahy/NCbx6XJUw+f2Ix5fmNtAQhz5hGP/E4RK2VBbVAOoSjuM/WFf/HJ4K3wzfd6RH2EMwxCoHg+BO+BFSPdYmDMcohlhmpxsFM/ECCZg5NAjxDLFI+uQdDS7n639ZreRshZAbYi7/5raymFtk7xw4uS81B5QwufkHh2udt9lTNxJPjm7UAKoRhvG/KFCZrOaHUXAv3FhfZg4IIaIhxAgz4GhwJZrjssgc5YS95AXxEU1IZo7fH2TMMVObo5QwGSM/oq2SXcUAm6OEMHx4Nube2/w6DTeHsIt7cqXoqoWEvfjJoCvvNleiQOYoIjTAEGJka23ZOwduI8lH1IRhgvmIJol0NTH3rpPDzeGoIhzH30wwhBjFemk0uhKG0nzDHHLCXvzLDEOIUa4IZ82xnzt6JCVMfFMMIUa95h11jkVz3GUeciSEYcvLoNAUrepnz/9kzLFBaJYhxBTXLbLm2F2bI0+Y3OBN4ktSVpnJviXr+5s5soRIy7ywlNaecuY4WAxHkdBAQ4gBVNeyb8maX6ZLAGtC3GVeQED1w+xtNWfcHG+EY/Rl3tLAKqS59yueB6PFX24ekJZ5NQKtAefNsfjT6AG4DLzK3R/Y+a4TnTp+t2PfjfWaOxWsfNeJ5l4MC9+vqL3bROu2GhOiv58m6njfsVutkyo7hqLgfhe73fBU2xPV/4Hdbnjq7fqyIY7QEZofR+gIzY8jdITmxxE6QvPjCB2h+XGEjtD8OEJHaH4coSM0P47QEZofR2g/Yb3z+DZkX7aLmxSh1slROwllu7ipEW7u4qZHyNid5p0D9hGqz/+QIdS8c8BKQsX5H1KEbHoANYethHBz2EsINYfNhDBz2E0IMYflhABzWE8onP8hS8jNUfSuEwqExeagQcjNcawajlQIuTk68q5Kh5AN5eYgRKi4c4AUoXTOQYxQYg5qhJvmoEeYmkO8rYYiITdHt0+cUJxzECUU7hwgS7gyB2HC5Z0DpAlfzUGbMDWHRafzKkbydm4XFxcXFxcXF5e3/AdXgKiUG2LSiAAAAABJRU5ErkJggg==;fontStyle=1;labelPosition=center;align=center;" vertex="1" parent="1">
          <mxGeometry x="-90" y="220" width="80" height="80" as="geometry" />
        </mxCell>
      </root>
    </mxGraphModel>
  </diagram>
</mxfile>
